HIERARCHY
ROOT hip
{
  OFFSET 0 0 0
  CHANNELS 6 Xposition Yposition Zposition Zrotation Yrotation Xrotation
  JOINT abdomen
  {
    OFFSET 0 20.6881 -0.73152
    CHANNELS 3 Zrotation Xrotation Yrotation
    JOINT chest
    {
      OFFSET 0 11.7043 -0.48768
      CHANNELS 3 Zrotation Xrotation Yrotation
      JOINT neck
      {
        OFFSET 0 22.1894 -2.19456
        CHANNELS 3 Zrotation Xrotation Yrotation
        JOINT head
        {
          OFFSET -0.24384 7.07133 1.2192
          CHANNELS 3 Zrotation Xrotation Yrotation
          JOINT leftEye
          {
            OFFSET 4.14528 8.04674 8.04672
            CHANNELS 3 Zrotation Xrotation Yrotation
            End Site
            {
              OFFSET 1 0 0
            }
          }
          JOINT rightEye
          {
            OFFSET -3.6576 8.04674 8.04672
            CHANNELS 3 Zrotation Xrotation Yrotation
            End Site
            {
              OFFSET 1 0 0
            }
          }
        }
      }
      JOINT rCollar
      {
        OFFSET -2.68224 19.2634 -4.8768
        CHANNELS 3 Zrotation Xrotation Yrotation
        JOINT rShldr
        {
          OFFSET -8.77824 -1.95073 1.46304
          CHANNELS 3 Zrotation Xrotation Yrotation
          JOINT rForeArm
          {
            OFFSET -28.1742 -1.7115 0.48768
            CHANNELS 3 Zrotation Xrotation Yrotation
            JOINT rHand
            {
              OFFSET -22.5879 0.773209 7.07136
              CHANNELS 3 Zrotation Xrotation Yrotation
              JOINT rThumb1
              {
                OFFSET -1.2192 -0.487915 3.41376
                CHANNELS 3 Zrotation Xrotation Yrotation
                JOINT rThumb2
                {
                  OFFSET -3.37035 -0.52449 3.41376
                  CHANNELS 3 Zrotation Xrotation Yrotation
                  End Site
                  {
                    OFFSET -1.78271 -1.18214 1.43049
                  }
                }
              }
              JOINT rIndex1
              {
                OFFSET -7.75947 0.938293 5.60832
                CHANNELS 3 Zrotation Xrotation Yrotation
                JOINT rIndex2
                {
                  OFFSET -2.54057 -0.884171 1.56538
                  CHANNELS 3 Zrotation Xrotation Yrotation
                  End Site
                  {
                    OFFSET -1.62519 -0.234802 1.16502
                  }
                }
              }
              JOINT rMid1
              {
                OFFSET -8.24714 1.18213 3.41376
                CHANNELS 3 Zrotation Xrotation Yrotation
                JOINT rMid2
                {
                  OFFSET -3.10165 -0.590103 1.0647
                  CHANNELS 3 Zrotation Xrotation Yrotation
                  End Site
                  {
                    OFFSET -2.48547 -0.328903 0.83742
                  }
                }
              }
              JOINT rRing1
              {
                OFFSET -8.82822 0.546677 1.51678
                CHANNELS 3 Zrotation Xrotation Yrotation
                JOINT rRing2
                {
                  OFFSET -2.60934 -0.819778 -0.0198488
                  CHANNELS 3 Zrotation Xrotation Yrotation
                  End Site
                  {
                    OFFSET -2.33842 -0.294052 0.168128
                  }
                }
              }
              JOINT rPinky1
              {
                OFFSET -8.27202 -0.0477905 -0.4584
                CHANNELS 3 Zrotation Xrotation Yrotation
                JOINT rPinky2
                {
                  OFFSET -1.82734 -0.647385 -0.700984
                  CHANNELS 3 Zrotation Xrotation Yrotation
                  End Site
                  {
                    OFFSET -1.69225 -0.51767 -0.607171
                  }
                }
              }
            }
          }
        }
      }
      JOINT lCollar
      {
        OFFSET 2.68224 19.2634 -4.8768
        CHANNELS 3 Zrotation Xrotation Yrotation
        JOINT lShldr
        {
          OFFSET 8.77824 -1.95073 1.46304
          CHANNELS 3 Zrotation Xrotation Yrotation
          JOINT lForeArm
          {
            OFFSET 28.1742 -1.7115 0.48768
            CHANNELS 3 Zrotation Xrotation Yrotation
            JOINT lHand
            {
              OFFSET 22.5879 0.773209 7.07136
              CHANNELS 3 Zrotation Xrotation Yrotation
              JOINT lThumb1
              {
                OFFSET 1.2192 -0.487915 3.41376
                CHANNELS 3 Zrotation Xrotation Yrotation
                JOINT lThumb2
                {
                  OFFSET 3.37035 -0.52449 3.41376
                  CHANNELS 3 Zrotation Xrotation Yrotation
                  End Site
                  {
                    OFFSET 1.78271 -1.18214 1.43049
                  }
                }
              }
              JOINT lIndex1
              {
                OFFSET 7.75947 0.938293 5.60832
                CHANNELS 3 Zrotation Xrotation Yrotation
                JOINT lIndex2
                {
                  OFFSET 2.54057 -0.884171 1.56538
                  CHANNELS 3 Zrotation Xrotation Yrotation
                  End Site
                  {
                    OFFSET 1.62519 -0.234802 1.16502
                  }
                }
              }
              JOINT lMid1
              {
                OFFSET 8.24714 1.18213 3.41376
                CHANNELS 3 Zrotation Xrotation Yrotation
                JOINT lMid2
                {
                  OFFSET 3.10165 -0.590103 1.0647
                  CHANNELS 3 Zrotation Xrotation Yrotation
                  End Site
                  {
                    OFFSET 2.48547 -0.328903 0.83742
                  }
                }
              }
              JOINT lRing1
              {
                OFFSET 8.82822 0.546677 1.51678
                CHANNELS 3 Zrotation Xrotation Yrotation
                JOINT lRing2
                {
                  OFFSET 2.60934 -0.819778 -0.0198488
                  CHANNELS 3 Zrotation Xrotation Yrotation
                  End Site
                  {
                    OFFSET 2.33842 -0.294052 0.168128
                  }
                }
              }
              JOINT lPinky1
              {
                OFFSET 8.27202 -0.0477905 -0.4584
                CHANNELS 3 Zrotation Xrotation Yrotation
                JOINT lPinky2
                {
                  OFFSET 1.82734 -0.647385 -0.700984
                  CHANNELS 3 Zrotation Xrotation Yrotation
                  End Site
                  {
                    OFFSET 1.69225 -0.51767 -0.607171
                  }
                }
              }
            }
          }
        }
      }
    }
  }
  JOINT rButtock
  {
    OFFSET -8.77824 4.35084 1.2192
    CHANNELS 3 Zrotation Xrotation Yrotation
    JOINT rThigh
    {
      OFFSET 0 -1.70687 -2.19456
      CHANNELS 3 Zrotation Xrotation Yrotation
      JOINT rShin
      {
        OFFSET 0 -36.8199 0.73152
        CHANNELS 3 Zrotation Xrotation Yrotation
        JOINT rFoot
        {
          OFFSET 0.73152 -45.1104 -5.12064
          CHANNELS 3 Zrotation Xrotation Yrotation
          End Site
          {
            OFFSET -1.1221 -3.69964 12.103
          }
        }
      }
    }
  }
  JOINT lButtock
  {
    OFFSET 8.77824 4.35084 1.2192
    CHANNELS 3 Zrotation Xrotation Yrotation
    JOINT lThigh
    {
      OFFSET 0 -1.70687 -2.19456
      CHANNELS 3 Zrotation Xrotation Yrotation
      JOINT lShin
      {
        OFFSET 0 -36.8199 0.73152
        CHANNELS 3 Zrotation Xrotation Yrotation
        JOINT lFoot
        {
          OFFSET -0.73152 -45.1104 -5.12064
          CHANNELS 3 Zrotation Xrotation Yrotation
          End Site
          {
            OFFSET 1.1221 -3.69964 12.103
          }
        }
      }
    }
  }
}
MOTION
Frames:	8
Frame Time:	0.03333
0.0 0.0 0.0 0.0 0.0 0.0 0.0 0.0 0.0 0.0 0.0 0.0 0.0 0.0 0.0 0.0 0.0 0.0 0.0 0.0 0.0 0.0 0.0 0.0 0.0 0.0 0.0 0.0 0.0 0.0 0.0 0.0 0.0 0.0 0.0 0.0 0.0 0.0 0.0 0.0 0.0 0.0 0.0 0.0 0.0 0.0 0.0 0.0 0.0 0.0 0.0 0.0 0.0 0.0 0.0 0.0 0.0 0.0 0.0 0.0 0.0 0.0 0.0 0.0 0.0 0.0 0.0 0.0 0.0 0.0 0.0 0.0 0.0 0.0 0.0 0.0 0.0 0.0 0.0 0.0 0.0 0.0 0.0 0.0 0.0 0.0 0.0 0.0 0.0 0.0 0.0 0.0 0.0 0.0 0.0 0.0 0.0 0.0 0.0 0.0 0.0 0.0 0.0 0.0 0.0 0.0 0.0 0.0 0.0 0.0 0.0 0.0 0.0 0.0 0.0 0.0 0.0 0.0 0.0 0.0 0.0 0.0 0.0 0.0 0.0 0.0 0.0 0.0 0.0 0.0 0.0 0.0
-0.2402 59.9796 -0.1498 -163.626103 -12.653051 -176.177309 10.647184 5.418415 80.282777 -6.267038 -3.973964 -66.779425 7.311594 17.435598 66.859738 -29.667387 -8.564682 -69.310794 -0.000346 0.0 -0.000755 0.000163 0.0 0.004436 3.540815 -62.053042 -13.040333 98.273095 43.81297 -81.521332 172.085792 5.939514 100.180655 159.441935 -28.827055 142.565831 -2.607191 2.555043 0.457928 -138.971283 -43.264136 117.847062 -8.571406 12.50881 5.450635 -168.20818 -20.875212 109.639299 -0.569062 1.648714 0.321849 -27.690388 51.090116 22.909614 -74.839053 72.961959 92.827587 -159.825288 -1.695221 176.528565 4.441795 12.865125 4.019045 -80.804135 -54.479578 -80.148283 85.537784 68.182248 -88.688798 104.648144 9.477798 -94.878921 76.115008 -58.735037 125.093823 -79.903812 -66.012713 -68.331701 89.13562 38.426041 -50.299439 -24.311946 -28.911889 -22.129809 -2.326116 -3.867847 1.258586 37.185285 43.089412 -27.933056 145.288362 29.524886 -132.693524 42.347399 58.321193 -36.568739 145.061877 -3.309503 178.086666 146.514432 -46.770886 169.183639 86.172792 -50.46899 84.539736 6.912173 -21.679597 10.002058 -0.006565 -0.000465 -0.006564 1.432327 3.895598 180.0 -3.699552 -45.782985 46.463679 61.775845 64.851171 42.723093 -0.000826 0.001006 0.001061 68.139821 -59.840719 -28.807397 -71.71215 7.807717 115.582411 98.594549 -48.288644 -13.739461
-0.34359999999999996 59.8189 -0.2212 -163.415715 -12.554097 -176.238072 13.659658 7.117885 -1.149412 0.400867 -8.587284 14.890513 2.879206 31.874081 167.214963 -13.463645 42.765435 -161.607458 -0.003577 0.0 -0.004679 -0.003577 0.0 -0.004679 -155.417505 -2.951426 161.718505 129.707931 -17.385403 158.112896 -8.857515 -14.783871 40.724927 -4.021623 29.978889 2.781651 9.38997 -9.381141 -0.68267 -3.305376 1.079205 -3.642719 10.210679 -18.05098 -4.562623 -7.676187 26.186206 7.950117 -169.089746 -33.247445 145.374498 -163.380288 -4.766838 142.985316 0.006515 1.771306 0.556969 -115.698943 74.731898 129.226666 -158.213527 60.369378 -150.800524 -128.900065 -28.21791 -125.670884 6.251442 26.219261 -7.467505 7.034753 56.985816 -86.692228 31.981516 30.094027 28.065242 -86.242967 -66.021264 -74.633944 -93.028121 -51.083855 -40.501342 105.781338 -87.073338 143.801455 -15.556365 -27.951183 5.752055 174.718171 -35.232516 -107.386466 -6.532184 -20.415052 2.71879 -9.780288 -20.372077 1.531921 31.709064 -66.108965 46.28334 -14.580358 -1.725131 3.551332 -0.462969 1.226859 -0.42874 10.559781 -26.765225 11.805479 -0.004656 0.000916 -0.004656 0.860276 6.028007 37.871729 25.675292 27.714326 -108.891207 7.205108 -16.600586 26.675238 179.992731 75.75068 0.004974 -153.520122 -0.778813 -0.0 55.070243 76.958108 91.958763 166.33119 29.615466 142.008365
-0.41700000000000004 59.691700000000004 -0.2932 -163.085368 -12.196617 -176.566525 14.532349 7.0964 -1.220403 0.149495 -8.441377 15.226435 9.478892 22.211291 96.86936 -33.496332 9.640983 -94.157088 -0.001773 -0.0 0.001467 -0.001773 -0.0 0.001467 -143.15782 39.098194 147.586395 96.797328 -30.931229 109.057665 70.456627 -36.500189 85.050236 -130.0121 76.590457 112.76088 2.016505 -2.000307 -0.275987 -9.349838 10.012524 6.736508 -108.427294 34.161262 91.743306 -147.204592 18.144577 111.00846 68.983721 -80.154088 40.57812 -34.738942 55.018747 29.185241 -67.608014 -72.074087 -84.374307 -68.62537 -82.513895 -94.611935 12.25177 41.424964 10.281413 -3.57115 -12.87901 -4.917294 44.041054 64.186697 -46.710927 122.867632 -2.477628 -109.358941 -0.869276 -58.410186 61.659835 -151.900536 -41.572622 -136.072053 171.603754 -9.286055 -89.950239 -30.18397 -65.009756 -25.014412 -12.216645 -21.784703 5.119816 -56.077082 -48.745733 -10.564188 0.058284 0.167866 -0.031049 -5.16879 -5.862688 0.702919 72.756788 -72.142107 89.772795 61.636024 -82.337136 87.570406 -8.369214 26.426573 -7.362094 9.206404 -23.844039 10.169048 0.0 0.000461 -0.000504 1.920843 6.475893 -16.560279 1.883569 35.47623 63.692005 -35.65089 -43.584436 -109.101869 -179.994615 75.749181 -0.003684 -153.449118 -0.960629 1.048704 42.511567 67.778405 6.455348 -136.516434 8.660583 39.201259
-0.48190000000000005 59.5686 -0.3174 -162.936779 -11.740565 -176.666194 12.269098 5.101024 79.959873 -5.797454 -3.471906 -65.91547 -10.699749 27.812851 -108.243118 34.594629 25.273316 103.153006 0.001306 0.0 0.000823 0.001408 -0.0 -0.001982 -13.015588 41.25026 14.798362 45.08933 34.288053 36.562674 161.941263 48.138529 118.99739 162.442417 -23.495032 144.197241 -2.813362 2.754415 0.498416 -14.815958 14.487784 14.386635 -148.885618 -12.610064 120.24449 179.144047 -47.102319 113.450081 -12.843455 28.996991 9.149933 -179.590036 -48.726354 141.433308 -145.117744 0.212869 -179.195225 12.122944 44.670263 -3.869915 8.369293 26.426623 7.361426 -146.735463 8.12006 -142.687935 152.942229 10.523571 -158.536362 -69.441171 -75.883968 -121.754643 107.020494 -88.411857 85.236572 6.659597 37.030839 -3.227787 6.581374 6.34467 -1.36627 -74.25814 -76.10356 -6.105851 4.706644 7.223956 -2.855118 -165.190587 -47.784835 -97.783646 -0.541919 -1.589869 0.294265 -29.351431 -60.226223 -6.397988 13.61879 -53.679547 25.68347 -14.174032 -3.561498 2.641182 19.184798 -32.413785 18.377791 -20.367464 58.252131 -9.208622 179.99143 75.748872 0.007051 -170.581543 82.277804 -9.309517 15.570193 35.133164 64.467866 -61.525879 -37.5117 -138.801529 -179.995877 75.748872 -0.002821 -154.420632 -2.11343 89.729988 79.651878 -15.049099 -0.718684 -12.767546 -24.895275 -103.062849
-0.5277 59.489999999999995 -0.4035 -163.153139 -11.586256 -176.668063 12.131884 3.844844 107.324573 -5.72753 -0.837869 -93.151041 8.438534 18.700662 75.58403 -30.196288 -2.765125 -75.749985 0.000324 0.0 0.002425 -0.000202 -0.0 4.6e-05 -155.809414 -5.555635 162.266131 17.38623 -74.811432 64.69466 36.851084 76.036454 -109.212266 159.181249 -30.190667 141.87586 98.48151 -51.215458 44.374868 -136.379066 20.868283 96.362648 -148.886305 -12.610018 120.244152 -62.461841 57.285986 45.898639 68.984288 -80.153871 40.577829 2.196854 2.407601 0.501861 -0.000421 -0.018632 -0.004874 -155.411756 -1.110905 171.98102 -111.057287 -41.158842 -109.116699 -152.141611 29.721119 -145.757544 5.824641 24.937301 -6.98987 -86.559319 -18.979187 -29.550704 174.084153 -1.637981 -118.538598 -151.918937 -41.680925 -136.00292 -2.46373 -2.445553 0.328163 -32.050554 -57.300788 19.953222 161.90093 -36.242752 -122.689764 164.718364 -26.251843 -118.913765 29.51488 47.608416 -23.796343 163.058162 -4.611656 -143.257202 72.757356 -72.143066 89.772314 149.850117 -27.113495 179.899928 -26.984431 80.121831 -10.128028 6.493731 -17.522386 7.724327 0.00099 -2e-06 -0.001273 1.445089 6.491835 -26.34473 -21.148355 37.035599 -73.145348 177.241571 -21.859532 -61.350384 -0.009197 -1e-06 -0.009197 69.876229 -61.278965 -107.814185 -77.145116 -71.756099 -110.748189 49.720867 44.760611 -162.682845
-0.5685 59.3836 -0.42100000000000004 -162.982196 -11.686548 -176.655135 14.638101 6.528125 -1.081655 0.317061 -8.063575 14.878138 3.165989 31.869437 167.054207 -12.743852 41.524955 -161.032415 0.00469 -0.0 -0.001066 -0.001121 -0.0 0.002342 -0.16462 0.979299 0.218373 68.280077 23.192915 -7.715628 -179.409299 15.141051 102.801149 156.195283 -35.62645 139.444635 -171.637941 -9.318991 89.948157 -128.139364 12.405275 62.287647 -108.427626 34.160808 91.742791 -172.941718 -26.169733 115.436173 -167.374797 -28.008422 145.269856 -163.094513 -3.971413 142.893177 -145.119939 0.185469 -179.186588 -79.456461 87.679965 92.760497 -125.806896 -27.877516 -123.551954 4.149832 2.780222 -0.826618 149.904691 22.421293 -154.974165 -135.036196 10.571388 -151.554986 96.049042 46.248513 -83.876973 -26.035958 -44.333493 -18.177954 -176.505031 -20.694798 -88.628538 12.592778 -51.510221 3.325567 -2.325406 -3.867917 1.259529 -18.204356 -8.820361 1.411038 36.033908 51.724047 -29.831083 -3.376617 0.078156 -0.078883 145.118866 0.18504 179.18747 -10.584705 66.554579 -0.204591 135.823367 -11.892899 133.185717 146.871901 11.084023 141.670716 0.0 0.001513 -0.001272 1.093033 6.714919 -0.106253 0.831268 41.329541 -102.897365 -118.728313 -73.245885 -24.86105 179.989808 75.751236 0.006974 -153.229431 -1.201556 1.180235 15.817035 78.429266 -121.075702 60.924679 88.112814 18.163357
-0.606 59.2342 -0.4222 -162.920882 -11.92527 -176.785561 14.604839 6.552674 0.0 0.182267 -8.068347 13.579491 8.006553 17.618844 69.212984 -28.64409 -6.068917 -69.987343 -0.002315 0.0 -0.002427 -0.001376 -0.0 0.005124 -14.147951 43.06161 15.996413 -110.686345 -10.845938 148.440926 105.562552 35.124304 -91.915812 -152.58434 68.945762 132.897206 -95.360974 37.750132 54.682464 -53.240342 -3.363158 45.421023 -10.571749 15.013403 6.864744 -76.839931 48.482366 58.325848 -160.099437 -4.900794 142.969449 -12.900352 35.223149 10.499399 -145.101151 -1.521526 -178.651005 -155.410942 1.341084 -179.397236 -87.577206 -50.209218 -85.929476 -19.866873 -37.406284 -22.09801 130.419666 54.549006 -134.287383 -120.561881 -13.461412 -120.207757 -89.88172 -43.024233 -72.76438 168.925363 53.376021 -145.465044 -178.851494 -18.544783 -89.078216 62.833329 0.775589 -13.317534 166.822051 -43.973711 -122.061691 60.829985 57.051184 -47.336522 0.057279 0.168006 -0.031336 163.253524 -4.710612 -143.344218 -0.004121 1.771421 -0.556276 152.303014 28.313529 -167.395056 122.105258 -32.096343 119.947222 -2.126375 -2.570587 2.398092 179.989755 75.749843 0.00904 -171.850631 82.400291 -0.0 10.605312 42.980965 -139.470439 33.062996 32.684847 74.6095 179.991119 75.748962 0.006077 -154.398579 -2.437109 84.928504 85.537551 -0.934115 106.729361 147.908713 9.365029 -171.550164
